<?xml version="1.0" encoding="utf-8" standalone="no"?>
<!DOCTYPE svg PUBLIC "-//W3C//DTD SVG 1.1//EN"
  "http://www.w3.org/Graphics/SVG/1.1/DTD/svg11.dtd">
<svg xmlns:xlink="http://www.w3.org/1999/xlink" width="1296pt" height="1152pt" viewBox="0 0 1296 1152" xmlns="http://www.w3.org/2000/svg" version="1.1">
 <metadata>
  <rdf:RDF xmlns:dc="http://purl.org/dc/elements/1.1/" xmlns:cc="http://creativecommons.org/ns#" xmlns:rdf="http://www.w3.org/1999/02/22-rdf-syntax-ns#">
   <cc:Work>
    <dc:type rdf:resource="http://purl.org/dc/dcmitype/StillImage"/>
    <dc:date>2023-11-16T11:18:03.992717</dc:date>
    <dc:format>image/svg+xml</dc:format>
    <dc:creator>
     <cc:Agent>
      <dc:title>Matplotlib v3.7.2, https://matplotlib.org/</dc:title>
     </cc:Agent>
    </dc:creator>
   </cc:Work>
  </rdf:RDF>
 </metadata>
 <defs>
  <style type="text/css">*{stroke-linejoin: round; stroke-linecap: butt}</style>
 </defs>
 <g id="figure_1">
  <g id="patch_1">
   <path d="M 0 1152 
L 1296 1152 
L 1296 0 
L 0 0 
z
" style="fill: #ffffff"/>
  </g>
  <g id="axes_1">
   <g id="patch_2">
    <path d="M 111.105188 261.740212 
Q 471.391198 741.412328 981.116349 1046.148814 
" clip-path="url(#p935051c1c0)" style="fill: none; stroke: #1f77b4; stroke-width: 5.4; stroke-linecap: round"/>
    <path d="M 976.302424 1038.610503 
L 981.116349 1046.148814 
L 972.197345 1045.476967 
z
" clip-path="url(#p935051c1c0)" style="fill: #1f77b4; stroke: #1f77b4; stroke-width: 5.4; stroke-linecap: round"/>
   </g>
   <g id="patch_3">
    <path d="M 112.591549 260.411681 
Q 467.024573 589.043153 917.447061 759.381578 
" clip-path="url(#p935051c1c0)" style="fill: none; stroke: #1f77b4; stroke-width: 1.6; stroke-linecap: round"/>
    <path d="M 911.379169 752.810376 
L 917.447061 759.381578 
L 908.549365 760.293171 
z
" clip-path="url(#p935051c1c0)" style="fill: #1f77b4; stroke: #1f77b4; stroke-width: 1.6; stroke-linecap: round"/>
   </g>
   <g id="patch_4">
    <path d="M 113.745555 258.936046 
Q 396.866122 444.027889 728.170648 509.991654 
" clip-path="url(#p935051c1c0)" style="fill: none; stroke: #1f77b4; stroke-width: 0.4; stroke-linecap: round"/>
    <path d="M 721.105733 504.506494 
L 728.170648 509.991654 
L 719.543571 512.352489 
z
" clip-path="url(#p935051c1c0)" style="fill: #1f77b4; stroke: #1f77b4; stroke-width: 0.4; stroke-linecap: round"/>
   </g>
   <g id="patch_5">
    <path d="M 114.610405 257.355589 
Q 270.362566 325.943725 440.161672 333.378611 
" clip-path="url(#p935051c1c0)" style="fill: none; stroke: #1f77b4; stroke-width: 0.2; stroke-linecap: round"/>
    <path d="M 432.344308 329.032485 
L 440.161672 333.378611 
L 431.994352 337.024827 
z
" clip-path="url(#p935051c1c0)" style="fill: #1f77b4; stroke: #1f77b4; stroke-width: 0.2; stroke-linecap: round"/>
   </g>
   <g id="patch_6">
    <path d="M 989.204964 1046.015662 
Q 628.918955 566.343546 116.890722 260.230174 
" clip-path="url(#p935051c1c0)" style="fill: none; stroke: #1f77b4; stroke-width: 3; stroke-linecap: round"/>
    <path d="M 121.704646 267.768485 
L 116.890722 260.230174 
L 125.809725 260.902021 
z
" clip-path="url(#p935051c1c0)" style="fill: #1f77b4; stroke: #1f77b4; stroke-width: 3; stroke-linecap: round"/>
   </g>
   <g id="patch_7">
    <path d="M 995.525727 1043.789687 
Q 989.782676 903.293421 934.439571 775.002383 
" clip-path="url(#p935051c1c0)" style="fill: none; stroke: #1f77b4; stroke-width: 0.8; stroke-linecap: round"/>
    <path d="M 933.935565 783.932443 
L 934.439571 775.002383 
L 941.281215 780.763624 
z
" clip-path="url(#p935051c1c0)" style="fill: #1f77b4; stroke: #1f77b4; stroke-width: 0.8; stroke-linecap: round"/>
   </g>
   <g id="patch_8">
    <path d="M 993.166619 1044.12932 
Q 920.068981 758.887591 746.478775 521.591911 
" clip-path="url(#p935051c1c0)" style="fill: none; stroke: #1f77b4; stroke-width: 0.4; stroke-linecap: round"/>
    <path d="M 747.973746 530.410361 
L 746.478775 521.591911 
L 754.430517 525.687003 
z
" clip-path="url(#p935051c1c0)" style="fill: #1f77b4; stroke: #1f77b4; stroke-width: 0.4; stroke-linecap: round"/>
   </g>
   <g id="patch_9">
    <path d="M 921.398631 756.323269 
Q 566.965607 427.691797 116.124819 257.195182 
" clip-path="url(#p935051c1c0)" style="fill: none; stroke: #1f77b4; stroke-width: 1.2; stroke-linecap: round"/>
    <path d="M 122.192711 263.766383 
L 116.124819 257.195182 
L 125.022515 256.283589 
z
" clip-path="url(#p935051c1c0)" style="fill: #1f77b4; stroke: #1f77b4; stroke-width: 1.2; stroke-linecap: round"/>
   </g>
   <g id="patch_10">
    <path d="M 929.960447 775.121499 
Q 935.703498 915.617765 990.958032 1043.703486 
" clip-path="url(#p935051c1c0)" style="fill: none; stroke: #1f77b4; stroke-linecap: round"/>
    <path d="M 991.462038 1034.773425 
L 990.958032 1043.703486 
L 984.116387 1037.942245 
z
" clip-path="url(#p935051c1c0)" style="fill: #1f77b4; stroke: #1f77b4; stroke-linecap: round"/>
   </g>
   <g id="patch_11">
    <path d="M 742.316519 523.06493 
Q 815.414157 808.306659 989.004363 1045.60234 
" clip-path="url(#p935051c1c0)" style="fill: none; stroke: #1f77b4; stroke-width: 0.4; stroke-linecap: round"/>
    <path d="M 987.509392 1036.78389 
L 989.004363 1045.60234 
L 981.05262 1041.507247 
z
" clip-path="url(#p935051c1c0)" style="fill: #1f77b4; stroke: #1f77b4; stroke-width: 0.4; stroke-linecap: round"/>
   </g>
   <g id="patch_12">
    <path d="M 730.241589 506.081969 
Q 447.121022 320.990126 115.597194 254.982697 
" clip-path="url(#p935051c1c0)" style="fill: none; stroke: #1f77b4; stroke-width: 0.2; stroke-linecap: round"/>
    <path d="M 122.662109 260.467857 
L 115.597194 254.982697 
L 124.224271 252.621862 
z
" clip-path="url(#p935051c1c0)" style="fill: #1f77b4; stroke: #1f77b4; stroke-width: 0.2; stroke-linecap: round"/>
   </g>
   <g id="LineCollection_1">
    <path d="M 104.407079 252.789819 
L 104.407079 252.789819 
" clip-path="url(#p935051c1c0)" style="fill: none; stroke: #1f77b4; stroke-width: 20"/>
    <path d="M 995.903073 1054.966055 
L 995.903073 1054.966055 
" clip-path="url(#p935051c1c0)" style="fill: none; stroke: #1f77b4; stroke-width: 5"/>
    <path d="M 929.583101 763.945131 
L 929.583101 763.945131 
" clip-path="url(#p935051c1c0)" style="fill: none; stroke: #1f77b4"/>
    <path d="M 739.580065 512.228195 
L 739.580065 512.228195 
" clip-path="url(#p935051c1c0)" style="fill: none; stroke: #1f77b4; stroke-width: 0.2"/>
    <path d="M 104.407079 252.789819 
L 995.903073 1054.966055 
" clip-path="url(#p935051c1c0)" style="fill: none"/>
    <path d="M 104.407079 252.789819 
L 929.583101 763.945131 
" clip-path="url(#p935051c1c0)" style="fill: none"/>
    <path d="M 104.407079 252.789819 
L 739.580065 512.228195 
" clip-path="url(#p935051c1c0)" style="fill: none"/>
    <path d="M 104.407079 252.789819 
L 451.554927 333.811015 
" clip-path="url(#p935051c1c0)" style="fill: none"/>
    <path d="M 995.903073 1054.966055 
L 104.407079 252.789819 
" clip-path="url(#p935051c1c0)" style="fill: none"/>
    <path d="M 995.903073 1054.966055 
L 929.583101 763.945131 
" clip-path="url(#p935051c1c0)" style="fill: none"/>
    <path d="M 995.903073 1054.966055 
L 739.580065 512.228195 
" clip-path="url(#p935051c1c0)" style="fill: none"/>
    <path d="M 929.583101 763.945131 
L 104.407079 252.789819 
" clip-path="url(#p935051c1c0)" style="fill: none"/>
    <path d="M 929.583101 763.945131 
L 995.903073 1054.966055 
" clip-path="url(#p935051c1c0)" style="fill: none"/>
    <path d="M 739.580065 512.228195 
L 995.903073 1054.966055 
" clip-path="url(#p935051c1c0)" style="fill: none"/>
    <path d="M 739.580065 512.228195 
L 104.407079 252.789819 
" clip-path="url(#p935051c1c0)" style="fill: none"/>
   </g>
   <g id="patch_13">
    <path d="M 104.407079 172.572196 
C 153.303305 172.572196 153.303305 252.789819 104.407079 252.789819 
C 55.510853 252.789819 55.510853 172.572196 104.407079 172.572196 
" clip-path="url(#p935051c1c0)" style="fill: none; stroke: #1f77b4; stroke-width: 20; stroke-linecap: round"/>
   </g>
   <g id="patch_14">
    <path d="M 995.903073 974.748431 
C 1044.799299 974.748431 1044.799299 1054.966055 995.903073 1054.966055 
C 947.006847 1054.966055 947.006847 974.748431 995.903073 974.748431 
" clip-path="url(#p935051c1c0)" style="fill: none; stroke: #1f77b4; stroke-width: 5; stroke-linecap: round"/>
   </g>
   <g id="patch_15">
    <path d="M 929.583101 683.727507 
C 978.479327 683.727507 978.479327 763.945131 929.583101 763.945131 
C 880.686875 763.945131 880.686875 683.727507 929.583101 683.727507 
" clip-path="url(#p935051c1c0)" style="fill: none; stroke: #1f77b4; stroke-linecap: round"/>
   </g>
   <g id="patch_16">
    <path d="M 739.580065 432.010572 
C 788.476291 432.010572 788.476291 512.228195 739.580065 512.228195 
C 690.683839 512.228195 690.683839 432.010572 739.580065 432.010572 
" clip-path="url(#p935051c1c0)" style="fill: none; stroke: #1f77b4; stroke-width: 0.2; stroke-linecap: round"/>
   </g>
   <g id="PathCollection_1"/>
   <g id="text_1">
    <!-- 18 -->
    <g transform="translate(135.42113 14.246816) rotate(-84.705882) scale(0.14 -0.14)">
     <defs>
      <path id="DejaVuSans-31" d="M 794 531 
L 1825 531 
L 1825 4091 
L 703 3866 
L 703 4441 
L 1819 4666 
L 2450 4666 
L 2450 531 
L 3481 531 
L 3481 0 
L 794 0 
L 794 531 
z
" transform="scale(0.015625)"/>
      <path id="DejaVuSans-38" d="M 2034 2216 
Q 1584 2216 1326 1975 
Q 1069 1734 1069 1313 
Q 1069 891 1326 650 
Q 1584 409 2034 409 
Q 2484 409 2743 651 
Q 3003 894 3003 1313 
Q 3003 1734 2745 1975 
Q 2488 2216 2034 2216 
z
M 1403 2484 
Q 997 2584 770 2862 
Q 544 3141 544 3541 
Q 544 4100 942 4425 
Q 1341 4750 2034 4750 
Q 2731 4750 3128 4425 
Q 3525 4100 3525 3541 
Q 3525 3141 3298 2862 
Q 3072 2584 2669 2484 
Q 3125 2378 3379 2068 
Q 3634 1759 3634 1313 
Q 3634 634 3220 271 
Q 2806 -91 2034 -91 
Q 1263 -91 848 271 
Q 434 634 434 1313 
Q 434 1759 690 2068 
Q 947 2378 1403 2484 
z
M 1172 3481 
Q 1172 3119 1398 2916 
Q 1625 2713 2034 2713 
Q 2441 2713 2670 2916 
Q 2900 3119 2900 3481 
Q 2900 3844 2670 4047 
Q 2441 4250 2034 4250 
Q 1625 4250 1398 4047 
Q 1172 3844 1172 3481 
z
" transform="scale(0.015625)"/>
     </defs>
     <use xlink:href="#DejaVuSans-31"/>
     <use xlink:href="#DejaVuSans-38" x="63.623047"/>
    </g>
   </g>
   <g id="text_2">
    <!-- 3 -->
    <g transform="translate(1290.439688 1058.82918) scale(0.14 -0.14)">
     <defs>
      <path id="DejaVuSans-33" d="M 2597 2516 
Q 3050 2419 3304 2112 
Q 3559 1806 3559 1356 
Q 3559 666 3084 287 
Q 2609 -91 1734 -91 
Q 1441 -91 1130 -33 
Q 819 25 488 141 
L 488 750 
Q 750 597 1062 519 
Q 1375 441 1716 441 
Q 2309 441 2620 675 
Q 2931 909 2931 1356 
Q 2931 1769 2642 2001 
Q 2353 2234 1838 2234 
L 1294 2234 
L 1294 2753 
L 1863 2753 
Q 2328 2753 2575 2939 
Q 2822 3125 2822 3475 
Q 2822 3834 2567 4026 
Q 2313 4219 1838 4219 
Q 1578 4219 1281 4162 
Q 984 4106 628 3988 
L 628 4550 
Q 988 4650 1302 4700 
Q 1616 4750 1894 4750 
Q 2613 4750 3031 4423 
Q 3450 4097 3450 3541 
Q 3450 3153 3228 2886 
Q 3006 2619 2597 2516 
z
" transform="scale(0.015625)"/>
     </defs>
     <use xlink:href="#DejaVuSans-33"/>
    </g>
   </g>
   <g id="text_3">
    <!-- 9 -->
    <g transform="translate(1205.625836 680.559172) rotate(-21.176471) scale(0.14 -0.14)">
     <defs>
      <path id="DejaVuSans-39" d="M 703 97 
L 703 672 
Q 941 559 1184 500 
Q 1428 441 1663 441 
Q 2288 441 2617 861 
Q 2947 1281 2994 2138 
Q 2813 1869 2534 1725 
Q 2256 1581 1919 1581 
Q 1219 1581 811 2004 
Q 403 2428 403 3163 
Q 403 3881 828 4315 
Q 1253 4750 1959 4750 
Q 2769 4750 3195 4129 
Q 3622 3509 3622 2328 
Q 3622 1225 3098 567 
Q 2575 -91 1691 -91 
Q 1453 -91 1209 -44 
Q 966 3 703 97 
z
M 1959 2075 
Q 2384 2075 2632 2365 
Q 2881 2656 2881 3163 
Q 2881 3666 2632 3958 
Q 2384 4250 1959 4250 
Q 1534 4250 1286 3958 
Q 1038 3666 1038 3163 
Q 1038 2656 1286 2365 
Q 1534 2075 1959 2075 
z
" transform="scale(0.015625)"/>
     </defs>
     <use xlink:href="#DejaVuSans-39"/>
    </g>
   </g>
   <g id="text_4">
    <!-- 10 -->
    <g transform="translate(959.743176 353.472372) rotate(-42.352941) scale(0.14 -0.14)">
     <defs>
      <path id="DejaVuSans-30" d="M 2034 4250 
Q 1547 4250 1301 3770 
Q 1056 3291 1056 2328 
Q 1056 1369 1301 889 
Q 1547 409 2034 409 
Q 2525 409 2770 889 
Q 3016 1369 3016 2328 
Q 3016 3291 2770 3770 
Q 2525 4250 2034 4250 
z
M 2034 4750 
Q 2819 4750 3233 4129 
Q 3647 3509 3647 2328 
Q 3647 1150 3233 529 
Q 2819 -91 2034 -91 
Q 1250 -91 836 529 
Q 422 1150 422 2328 
Q 422 3509 836 4129 
Q 1250 4750 2034 4750 
z
" transform="scale(0.015625)"/>
     </defs>
     <use xlink:href="#DejaVuSans-31"/>
     <use xlink:href="#DejaVuSans-30" x="63.623047"/>
    </g>
   </g>
   <g id="text_5">
    <!-- 12 -->
    <g transform="translate(586.255818 120.76277) rotate(-63.529412) scale(0.14 -0.14)">
     <defs>
      <path id="DejaVuSans-32" d="M 1228 531 
L 3431 531 
L 3431 0 
L 469 0 
L 469 531 
Q 828 903 1448 1529 
Q 2069 2156 2228 2338 
Q 2531 2678 2651 2914 
Q 2772 3150 2772 3378 
Q 2772 3750 2511 3984 
Q 2250 4219 1831 4219 
Q 1534 4219 1204 4116 
Q 875 4013 500 3803 
L 500 4441 
Q 881 4594 1212 4672 
Q 1544 4750 1819 4750 
Q 2544 4750 2975 4387 
Q 3406 4025 3406 3419 
Q 3406 3131 3298 2873 
Q 3191 2616 2906 2266 
Q 2828 2175 2409 1742 
Q 1991 1309 1228 531 
z
" transform="scale(0.015625)"/>
     </defs>
     <use xlink:href="#DejaVuSans-31"/>
     <use xlink:href="#DejaVuSans-32" x="63.623047"/>
    </g>
   </g>
   <g id="legend_1">
    <g id="patch_17">
     <path d="M 17.8 1136.2 
L 92.164062 1136.2 
Q 94.164062 1136.2 94.164062 1134.2 
L 94.164062 1120.521875 
Q 94.164062 1118.521875 92.164062 1118.521875 
L 17.8 1118.521875 
Q 15.8 1118.521875 15.8 1120.521875 
L 15.8 1134.2 
Q 15.8 1136.2 17.8 1136.2 
z
" style="fill: #ffffff; opacity: 0.8; stroke: #cccccc; stroke-linejoin: miter"/>
    </g>
    <g id="line2d_1">
     <path d="M 19.8 1126.620312 
L 29.8 1126.620312 
L 39.8 1126.620312 
" style="fill: none; stroke: #1f77b4; stroke-width: 5; stroke-linecap: square"/>
    </g>
    <g id="text_6">
     <!-- Spp1 GP -->
     <g transform="translate(47.8 1130.120312) scale(0.1 -0.1)">
      <defs>
       <path id="DejaVuSans-53" d="M 3425 4513 
L 3425 3897 
Q 3066 4069 2747 4153 
Q 2428 4238 2131 4238 
Q 1616 4238 1336 4038 
Q 1056 3838 1056 3469 
Q 1056 3159 1242 3001 
Q 1428 2844 1947 2747 
L 2328 2669 
Q 3034 2534 3370 2195 
Q 3706 1856 3706 1288 
Q 3706 609 3251 259 
Q 2797 -91 1919 -91 
Q 1588 -91 1214 -16 
Q 841 59 441 206 
L 441 856 
Q 825 641 1194 531 
Q 1563 422 1919 422 
Q 2459 422 2753 634 
Q 3047 847 3047 1241 
Q 3047 1584 2836 1778 
Q 2625 1972 2144 2069 
L 1759 2144 
Q 1053 2284 737 2584 
Q 422 2884 422 3419 
Q 422 4038 858 4394 
Q 1294 4750 2059 4750 
Q 2388 4750 2728 4690 
Q 3069 4631 3425 4513 
z
" transform="scale(0.015625)"/>
       <path id="DejaVuSans-70" d="M 1159 525 
L 1159 -1331 
L 581 -1331 
L 581 3500 
L 1159 3500 
L 1159 2969 
Q 1341 3281 1617 3432 
Q 1894 3584 2278 3584 
Q 2916 3584 3314 3078 
Q 3713 2572 3713 1747 
Q 3713 922 3314 415 
Q 2916 -91 2278 -91 
Q 1894 -91 1617 61 
Q 1341 213 1159 525 
z
M 3116 1747 
Q 3116 2381 2855 2742 
Q 2594 3103 2138 3103 
Q 1681 3103 1420 2742 
Q 1159 2381 1159 1747 
Q 1159 1113 1420 752 
Q 1681 391 2138 391 
Q 2594 391 2855 752 
Q 3116 1113 3116 1747 
z
" transform="scale(0.015625)"/>
       <path id="DejaVuSans-20" transform="scale(0.015625)"/>
       <path id="DejaVuSans-47" d="M 3809 666 
L 3809 1919 
L 2778 1919 
L 2778 2438 
L 4434 2438 
L 4434 434 
Q 4069 175 3628 42 
Q 3188 -91 2688 -91 
Q 1594 -91 976 548 
Q 359 1188 359 2328 
Q 359 3472 976 4111 
Q 1594 4750 2688 4750 
Q 3144 4750 3555 4637 
Q 3966 4525 4313 4306 
L 4313 3634 
Q 3963 3931 3569 4081 
Q 3175 4231 2741 4231 
Q 1884 4231 1454 3753 
Q 1025 3275 1025 2328 
Q 1025 1384 1454 906 
Q 1884 428 2741 428 
Q 3075 428 3337 486 
Q 3600 544 3809 666 
z
" transform="scale(0.015625)"/>
       <path id="DejaVuSans-50" d="M 1259 4147 
L 1259 2394 
L 2053 2394 
Q 2494 2394 2734 2622 
Q 2975 2850 2975 3272 
Q 2975 3691 2734 3919 
Q 2494 4147 2053 4147 
L 1259 4147 
z
M 628 4666 
L 2053 4666 
Q 2838 4666 3239 4311 
Q 3641 3956 3641 3272 
Q 3641 2581 3239 2228 
Q 2838 1875 2053 1875 
L 1259 1875 
L 1259 0 
L 628 0 
L 628 4666 
z
" transform="scale(0.015625)"/>
      </defs>
      <use xlink:href="#DejaVuSans-53"/>
      <use xlink:href="#DejaVuSans-70" x="63.476562"/>
      <use xlink:href="#DejaVuSans-70" x="126.953125"/>
      <use xlink:href="#DejaVuSans-31" x="190.429688"/>
      <use xlink:href="#DejaVuSans-20" x="254.052734"/>
      <use xlink:href="#DejaVuSans-47" x="285.839844"/>
      <use xlink:href="#DejaVuSans-50" x="363.330078"/>
     </g>
    </g>
   </g>
  </g>
 </g>
 <defs>
  <clipPath id="p935051c1c0">
   <rect x="10.8" y="126.447062" width="1078.710152" height="1014.752938"/>
  </clipPath>
 </defs>
</svg>
